<svg width="50" height="50" viewBox="0 0 50 50" fill="none" xmlns="http://www.w3.org/2000/svg">
<path fill-rule="evenodd" clip-rule="evenodd" d="M25 1.5625C12.0641 1.5625 1.5625 12.0641 1.5625 25C1.5625 37.9359 12.0641 48.4375 25 48.4375C37.9359 48.4375 48.4375 37.9359 48.4375 25C48.4375 12.0641 37.9359 1.5625 25 1.5625ZM25 4.6875C36.2109 4.6875 45.3125 13.7891 45.3125 25C45.3125 36.2109 36.2109 45.3125 25 45.3125C13.7891 45.3125 4.6875 36.2109 4.6875 25C4.6875 13.7891 13.7891 4.6875 25 4.6875ZM18.9531 24.8015C14.2141 27.0656 10.9375 31.9031 10.9375 37.5C10.9375 38.3625 11.6375 39.0625 12.5 39.0625C13.3625 39.0625 14.0625 38.3625 14.0625 37.5C14.0625 32.5969 17.2953 28.4438 21.7437 27.0563C21.8656 27.0172 21.9797 26.9656 22.086 26.9016C22.9922 27.2438 23.9734 27.4312 25 27.4312C26.0656 27.4312 27.0844 27.2281 28.0219 26.861C28.1031 26.8969 28.1891 26.9266 28.2797 26.9485C32.6937 28.0328 35.9375 31.3985 35.9375 36.25C35.9375 37.1125 36.6375 37.8125 37.5 37.8125C38.3625 37.8125 39.0625 37.1125 39.0625 36.25C39.0625 30.6766 35.8734 26.5469 31.2078 24.625C32.4859 23.1719 33.2625 21.2672 33.2625 19.1844C33.2625 14.6344 29.5609 10.9375 25 10.9375C20.4391 10.9375 16.7375 14.6344 16.7375 19.1844C16.7375 21.3531 17.5781 23.3297 18.9531 24.8015ZM25 14.0625C27.8344 14.0625 30.1375 16.3563 30.1375 19.1844C30.1375 22.011 27.8344 24.3062 25 24.3062C22.1656 24.3062 19.8625 22.011 19.8625 19.1844C19.8625 16.3563 22.1656 14.0625 25 14.0625Z" fill="#E5E5E5"/>
</svg>
