<svg width="78" height="64" viewBox="0 0 78 64" fill="none" xmlns="http://www.w3.org/2000/svg">
<path d="M39 63.6406C37.1599 63.6423 35.3582 63.1151 33.8092 62.1219C29.4146 59.2971 20.9631 53.4998 13.8141 46.4211C5.04082 37.727 0.591797 29.5391 0.591797 22.0789C0.591797 16.8951 2.12461 12.1455 5.025 8.34514C7.77539 4.73153 11.6606 2.1473 16.0565 1.0076C20.4524 -0.132104 25.1038 0.238882 29.2635 2.06096C32.9865 3.6676 36.307 6.37639 39 9.97111C41.693 6.3676 45.0135 3.65881 48.7365 2.06096C52.8962 0.238882 57.5476 -0.132104 61.9435 1.0076C66.3394 2.1473 70.2246 4.73153 72.975 8.34514C75.8754 12.1455 77.4082 16.8951 77.4082 22.0789C77.4082 29.5391 72.9592 37.7235 64.1859 46.4141C57.0369 53.4928 48.5889 59.2901 44.1908 62.1149C42.6426 63.1105 40.8408 63.6402 39 63.6406ZM21.0984 4.76447C19.7081 4.76322 18.3238 4.94647 16.9816 5.3094C13.613 6.23422 10.6401 8.23714 8.51777 11.0117C6.20801 14.0387 4.98633 17.8672 4.98633 22.086C4.98633 28.3297 8.9959 35.4664 16.9061 43.2992C23.7615 50.0949 31.9301 55.6918 36.184 58.4164C37.0239 58.953 37.9998 59.2381 38.9965 59.2381C39.9932 59.2381 40.9691 58.953 41.809 58.4164C46.0629 55.6848 54.2244 50.0879 61.0869 43.2992C68.9971 35.4664 73.0066 28.3297 73.0066 22.086C73.0066 17.8672 71.785 14.0457 69.4752 11.0117C67.3528 8.23714 64.3799 6.23422 61.0113 5.3094C55.0049 3.67815 46.5656 5.38322 40.8879 15.0617C40.6943 15.3925 40.4176 15.6668 40.0852 15.8575C39.7527 16.0481 39.3762 16.1484 38.993 16.1484C38.6098 16.1484 38.2332 16.0481 37.9008 15.8575C37.5683 15.6668 37.2916 15.3925 37.098 15.0617C32.6367 7.44338 26.4563 4.76447 21.0984 4.76447Z" fill="black"/>
</svg>
