<svg width="78" height="70" viewBox="0 0 78 70" fill="none" xmlns="http://www.w3.org/2000/svg">
<path d="M72.975 9.24247C70.2246 5.30765 66.3394 2.49371 61.9435 1.25271C57.5476 0.0116976 52.8962 0.415661 48.7365 2.3997C45.0135 4.14915 41.693 7.09872 39 11.013C36.307 7.08915 32.9865 4.13958 29.2635 2.3997C25.1038 0.415661 20.4524 0.0116976 16.0565 1.25271C11.6606 2.49371 7.77539 5.30765 5.025 9.24247C2.12461 13.3807 0.591797 18.5525 0.591797 24.197C0.591797 32.3203 5.04082 41.2322 13.8141 50.6953C20.9631 58.4033 29.4111 64.7158 33.8092 67.7917C35.3588 68.8717 37.1602 69.4456 39 69.4456C40.8398 69.4456 42.6412 68.8717 44.1908 67.7917C48.5854 64.7158 57.0369 58.4033 64.1859 50.6953C72.9592 41.236 77.4082 32.3203 77.4082 24.197C77.4082 18.5525 75.8754 13.3807 72.975 9.24247Z" fill="#F9595F"/>
</svg>
