<svg width="66" height="52" viewBox="0 0 66 52" fill="none" xmlns="http://www.w3.org/2000/svg">
<path d="M64.125 39.375C64.125 45.1188 58.5 50.625 52.875 50.625C50.0797 50.6271 47.3829 49.5934 45.3052 47.7234C43.2275 45.8535 41.9163 43.28 41.625 40.5H3.375C2.77826 40.5 2.20597 40.2629 1.78401 39.841C1.36205 39.419 1.125 38.8467 1.125 38.25V3.375C1.125 2.77826 1.36205 2.20597 1.78401 1.78401C2.20597 1.36205 2.77826 1.125 3.375 1.125H50.625C51.2217 1.125 51.794 1.36205 52.216 1.78401C52.6379 2.20597 52.875 2.77826 52.875 3.375V28.125C55.8338 28.2038 58.6497 29.4144 60.7426 31.5074C62.8356 33.6003 64.0462 36.4162 64.125 39.375Z" fill="#FAFAFA"/>
<path d="M46.125 10.125C46.125 11.015 45.8611 11.885 45.3666 12.6251C44.8721 13.3651 44.1693 13.9419 43.3471 14.2825C42.5248 14.6231 41.62 14.7122 40.7471 14.5385C39.8742 14.3649 39.0724 13.9363 38.443 13.307C37.8137 12.6776 37.3851 11.8758 37.2115 11.0029C37.0378 10.13 37.1269 9.22519 37.4675 8.40293C37.8081 7.58066 38.3849 6.87785 39.1249 6.38339C39.865 5.88892 40.735 5.625 41.625 5.625C42.8185 5.625 43.9631 6.09911 44.807 6.94302C45.6509 7.78693 46.125 8.93153 46.125 10.125Z" fill="#E0E0E0"/>
<path d="M2.60893 38.6672L19.3582 17.9769C19.4648 17.8452 19.5998 17.7393 19.7531 17.6671C19.9064 17.5949 20.0741 17.5582 20.2435 17.5599C20.413 17.5615 20.5799 17.6014 20.7318 17.6766C20.8836 17.7518 21.0165 17.8604 21.1206 17.9942L28.1252 27L35.1617 19.9635C35.2697 19.8556 35.3985 19.7707 35.5403 19.7142C35.6821 19.6577 35.8339 19.6306 35.9865 19.6346C36.1391 19.6386 36.2893 19.6736 36.428 19.7375C36.5666 19.8014 36.6908 19.8929 36.793 20.0063L46.1252 30.375C46.1252 30.375 41.6252 32.625 41.6252 40.5H3.37516C3.16567 40.4938 2.9624 40.4274 2.78968 40.3086C2.61697 40.1899 2.48212 40.0239 2.40128 39.8306C2.32044 39.6372 2.29704 39.4246 2.33386 39.2183C2.37069 39.012 2.46618 38.8206 2.60893 38.6672Z" fill="#E0E0E0"/>
<path d="M52.875 31.5C51.3175 31.5 49.7949 31.9619 48.4999 32.8272C47.2048 33.6925 46.1955 34.9224 45.5995 36.3614C45.0034 37.8003 44.8475 39.3837 45.1513 40.9113C45.4552 42.4389 46.2052 43.8421 47.3065 44.9435C48.4079 46.0448 49.8111 46.7948 51.3387 47.0987C52.8663 47.4025 54.4497 47.2466 55.8886 46.6505C57.3276 46.0545 58.5575 45.0452 59.4228 43.7501C60.2881 42.4551 60.75 40.9325 60.75 39.375C60.7476 37.2872 59.9171 35.2856 58.4408 33.8092C56.9644 32.3329 54.9628 31.5024 52.875 31.5ZM47.25 39.375C47.2484 38.3587 47.5226 37.361 48.0434 36.4882C48.5642 35.6155 49.312 34.9004 50.2072 34.4193C51.1024 33.9381 52.1114 33.7089 53.1267 33.7561C54.1419 33.8032 55.1253 34.125 55.972 34.6871L48.187 42.4721C47.576 41.5548 47.25 40.4772 47.25 39.375ZM52.875 45C51.7728 44.9999 50.6953 44.6739 49.778 44.0629L57.563 36.2779C58.1251 37.1246 58.4469 38.108 58.4941 39.1233C58.5413 40.1385 58.3121 41.1476 57.8309 42.0428C57.3497 42.938 56.6346 43.6859 55.7619 44.2067C54.8891 44.7275 53.8913 45.0017 52.875 45ZM54 27.057V3.375C53.999 2.4802 53.6431 1.62232 53.0104 0.9896C52.3777 0.356878 51.5198 0.000982664 50.625 0H3.375C2.4802 0.000982664 1.62232 0.356878 0.9896 0.9896C0.356878 1.62232 0.000982664 2.4802 0 3.375V38.25C0.000982664 39.1448 0.356878 40.0027 0.9896 40.6354C1.62232 41.2681 2.4802 41.624 3.375 41.625H40.715C41.1335 43.8894 42.1758 45.9921 43.7245 47.6963C45.2732 49.4005 47.2668 50.6386 49.481 51.2712C51.6952 51.9038 54.042 51.9059 56.2572 51.2771C58.4725 50.6483 60.4683 49.4137 62.0199 47.7122C63.5716 46.0107 64.6175 43.9099 65.04 41.6462C65.4625 39.3825 65.2447 37.0458 64.4112 34.8992C63.5777 32.7525 62.1616 30.8811 60.3222 29.4957C58.4829 28.1102 56.2933 27.2656 54 27.057ZM3.375 2.25H50.625C50.9233 2.2503 51.2093 2.36892 51.4202 2.57983C51.6311 2.79075 51.7497 3.07672 51.75 3.375V27.057C49.8156 27.2338 47.9507 27.867 46.3087 28.9048L37.6633 19.4031C37.4654 19.1563 37.2177 18.9539 36.9365 18.8091C36.6552 18.6643 36.3466 18.5802 36.0307 18.5625C35.7147 18.5432 35.3981 18.5917 35.1024 18.7047C34.8066 18.8177 34.5384 18.9927 34.3158 19.2178L28.1271 25.4064L22.0296 17.4314C21.8286 17.1473 21.5638 16.9141 21.2565 16.7506C20.9491 16.5871 20.6078 16.4979 20.2598 16.4899C19.9123 16.4818 19.5676 16.5536 19.2524 16.6999C18.9371 16.8462 18.6597 17.0631 18.4416 17.3337L2.25 37.5738V3.375C2.2503 3.07672 2.36892 2.79075 2.57983 2.57983C2.79075 2.36892 3.07672 2.2503 3.375 2.25ZM35.9733 39.375H3.69247L20.2203 18.769L35.9733 39.375ZM38.8067 39.375L29.5094 27.2149L35.9528 20.8636L44.515 30.2775C43.2509 31.4321 42.241 32.8373 41.5498 34.4036C40.8585 35.9699 40.501 37.6629 40.5 39.375H38.8067ZM52.875 49.5C50.8725 49.5 48.9149 48.9062 47.2498 47.7936C45.5848 46.6811 44.2871 45.0998 43.5207 43.2497C42.7544 41.3996 42.5539 39.3638 42.9445 37.3997C43.3352 35.4357 44.2995 33.6316 45.7155 32.2155C47.1316 30.7995 48.9357 29.8352 50.8997 29.4445C52.8638 29.0539 54.8996 29.2544 56.7497 30.0207C58.5998 30.7871 60.1811 32.0848 61.2936 33.7498C62.4062 35.4149 63 37.3725 63 39.375C62.997 42.0594 61.9293 44.633 60.0312 46.5312C58.133 48.4293 55.5594 49.497 52.875 49.5ZM41.625 15.75C42.7375 15.75 43.8251 15.4201 44.7501 14.802C45.6751 14.1839 46.3961 13.3054 46.8218 12.2776C47.2476 11.2498 47.359 10.1188 47.1419 9.02762C46.9249 7.93647 46.3891 6.93419 45.6025 6.14752C44.8158 5.36085 43.8135 4.82512 42.7224 4.60808C41.6312 4.39104 40.5002 4.50243 39.4724 4.92818C38.4446 5.35392 37.5661 6.07489 36.948 6.99992C36.3299 7.92494 36 9.01248 36 10.125C36.0018 11.6163 36.595 13.046 37.6495 14.1005C38.704 15.155 40.1337 15.7482 41.625 15.75ZM41.625 6.75C42.2925 6.75 42.945 6.94794 43.5 7.31879C44.0551 7.68964 44.4876 8.21674 44.7431 8.83344C44.9985 9.45014 45.0654 10.1287 44.9352 10.7834C44.8049 11.4381 44.4835 12.0395 44.0115 12.5115C43.5395 12.9835 42.9381 13.3049 42.2834 13.4352C41.6287 13.5654 40.9501 13.4985 40.3334 13.2431C39.7167 12.9876 39.1896 12.5551 38.8188 12C38.4479 11.445 38.25 10.7925 38.25 10.125C38.251 9.2302 38.6069 8.37232 39.2396 7.7396C39.8723 7.10688 40.7302 6.75098 41.625 6.75Z" fill="#9E9E9E"/>
</svg>
