<svg width="24" height="24" viewBox="0 0 24 24" fill="none" xmlns="http://www.w3.org/2000/svg">
<g id="single-03">
<g id="Group">
<path id="Vector" d="M15.1717 12.6862C14.2246 13.2213 13.1334 13.5307 11.97 13.5307C10.8066 13.5307 9.71541 13.2213 8.76826 12.6862C4.83698 14.0228 2 17.7469 2 22.1234C2 22.3131 2.15402 22.4671 2.34379 22.4671H21.5962C21.786 22.4671 21.94 22.3131 21.94 22.1234C21.94 17.7469 19.103 14.0228 15.1717 12.6862Z" fill="#47CFFF"/>
<path id="Vector_2" d="M11.97 1C8.74725 1 6.12549 3.62113 6.12549 6.84306C6.12549 10.065 8.74725 12.6861 11.97 12.6861C15.1927 12.6861 17.8145 10.065 17.8145 6.84306C17.8145 3.62113 15.1927 1 11.97 1Z" fill="#47CFFF"/>
</g>
</g>
</svg>
